<svg xmlns="http://www.w3.org/2000/svg" viewBox="0 0 242.09 71.82"><defs><style>.cls-1{fill:#47a8b4;}.cls-2{fill:#ffd17c;}</style></defs><title>Untitled-5</title><path d="M81.77 23.47h-8.63l.9-5.68H97.7l-.9 5.67h-8.67L84 49.4h-6.3zM96.18 26.46h5.64l.26 2.95a12.5 12.5 0 0 1 2.92-2.35 6.72 6.72 0 0 1 3.35-.85 8.3 8.3 0 0 1 2.3.26l-1 6.32q-1.6-.1-2.64-.1a9.77 9.77 0 0 0-3.22.52 9.12 9.12 0 0 0-2.54 1.33L98.9 49.4h-6.35zM112.12 47.67q-1.75-2-1.75-5.92a28 28 0 0 1 .5-4.78q.9-5.5 3.8-8.14T123 26.2a19.75 19.75 0 0 1 5.47.75 12.8 12.8 0 0 1 4.2 1.94l-3.25 20.5h-5.6l-.34-2.3a10.88 10.88 0 0 1-3.05 1.74 10.1 10.1 0 0 1-3.82.8 5.7 5.7 0 0 1-4.48-1.97zm9.83-3.53a13.27 13.27 0 0 0 2.13-1.14l1.75-11a4.25 4.25 0 0 0-1.26-.47 8 8 0 0 0-1.9-.2 4.7 4.7 0 0 0-3.8 1.5 9.56 9.56 0 0 0-1.8 4.65 22.18 22.18 0 0 0-.33 3.16 5.1 5.1 0 0 0 .73 2.9 2.5 2.5 0 0 0 2.22 1.08 5.83 5.83 0 0 0 2.24-.48zM137.58 26.46h5.26l.73 2.35a12.9 12.9 0 0 1 7.9-2.64 6 6 0 0 1 4.3 1.43 4.9 4.9 0 0 1 1.5 3.73 31.85 31.85 0 0 1-.5 4.74l-2.1 13.33h-6.32l2.05-13.12q.26-1.8.26-2 0-2.44-2.78-2.44a7 7 0 0 0-2.63.5 10.8 10.8 0 0 0-2.46 1.42L140.3 49.4H134zM159.12 48.63l.6-3.72h10q2.4 0 2.7-1.66l.12-.94v-.5q0-1.3-1.8-1.3h-3.4a8.64 8.64 0 0 1-4.77-1.14 3.9 3.9 0 0 1-1.77-3.5 10.26 10.26 0 0 1 .17-1.92l.26-1.62a6.86 6.86 0 0 1 2.67-4.5q2.16-1.6 6.77-1.6a39.4 39.4 0 0 1 4.55.3 28.08 28.08 0 0 1 4.2.76l-.6 3.72h-9.37a3.1 3.1 0 0 0-1.8.4 2.2 2.2 0 0 0-.76 1.36l-.14.64a4.18 4.18 0 0 0-.13.9 1 1 0 0 0 .45.88 3 3 0 0 0 1.52.28h3.85a7.2 7.2 0 0 1 4.38 1.22 3.94 3.94 0 0 1 1.64 3.32 14.24 14.24 0 0 1-.13 1.84l-.3 2a5.75 5.75 0 0 1-2.95 4.44 14.27 14.27 0 0 1-6.85 1.37 32.84 32.84 0 0 1-9.13-1.02zM185.48 31.54h-3.2l.64-4.06 3.33-1 .6-3.38a7.77 7.77 0 0 1 2.5-4.94q1.94-1.6 5.8-1.6a31.55 31.55 0 0 1 5.16.38l-.72 4.66h-3.3a3.47 3.47 0 0 0-2.47.75 4.12 4.12 0 0 0-1 2.5l-.2 1.62h5.55l-.8 5.08h-5.55L189 49.4h-6.32zM200.77 47.5q-2.14-2.16-2.14-6.4a29.8 29.8 0 0 1 .43-4.4q.85-5.5 3.82-8t8.18-2.5q8.72 0 8.72 6.83 0 4.44-2.65 6.1a13.57 13.57 0 0 1-7.26 1.68 20.83 20.83 0 0 1-4.87-.5q-.1 1-.08 1.54a2.6 2.6 0 0 0 1.26 2.4 8.16 8.16 0 0 0 4.08.76h7.4l-.6 3.72a45.53 45.53 0 0 1-9.28.94q-4.87 0-7-2.16zm11.8-11.1a3 3 0 0 0 1.3-2.72q0-2.7-3.24-2.7a4.36 4.36 0 0 0-3.57 1.48A9.3 9.3 0 0 0 205.4 37a18.5 18.5 0 0 0 2.85.26 8.42 8.42 0 0 0 4.32-.87zM221.28 44.83L234 31.53h-11.14l.8-5.07h18.43l-.7 4.54-12.73 13.32h10.85q-.1.8-.38 2.56t-.43 2.52h-18.14z" class="cls-1"/><path d="M25.3 13.2l2-1.55 8.28-6.55 1.08-.85H38l13 .1a28.3 28.3 0 0 0-38.27 7.7zM26.6 47.24l-9.35-20.48-9-4A28.34 28.34 0 0 0 27.67 55.4zM56 18.1L43.35 55.65a28.32 28.32 0 0 0 18.5-38.85z" class="cls-2"/><path d="M38 8.18l-8.32 6.54 11.6 3.86L0 14.82l27.9 12.43.6 4.5-6.64-3.6 7.24 8.25.54 4.08-5.34-6.18 5.95 10.86 3.53 26.66L53 14.74 81.64 8.5 38 8.17z" class="cls-1"/></svg>